Coordinates
version=1
nRows=6
nColumns=63
inDegrees=yes

Units are S.I. units (second, meters, Newtons, ...)
If the header above contains a line with 'inDegrees', this indicates whether rotational values are in degrees (yes) or radians (no).

endheader
time	pelvis_tilt	pelvis_list	pelvis_rotation	pelvis_tx	pelvis_ty	pelvis_tz	hip_flexion_r	hip_adduction_r	hip_rotation_r	knee_angle_r	knee_angle_r_beta	ankle_angle_r	subtalar_angle_r	mtp_angle_r	hip_flexion_l	hip_adduction_l	hip_rotation_l	knee_angle_l	knee_angle_l_beta	ankle_angle_l	subtalar_angle_l	mtp_angle_l	L5_S1_Flex_Ext	L5_S1_Lat_Bending	L5_S1_axial_rotation	L4_L5_Flex_Ext	L4_L5_Lat_Bending	L4_L5_axial_rotation	L3_L4_Flex_Ext	L3_L4_Lat_Bending	L3_L4_axial_rotation	L2_L3_Flex_Ext	L2_L3_Lat_Bending	L2_L3_axial_rotation	L1_L2_Flex_Ext	L1_L2_Lat_Bending	L1_L2_axial_rotation	L1_T12_Flex_Ext	L1_T12_Lat_Bending	L1_T12_axial_rotation	Abs_r3	Abs_r2	Abs_r1	Abs_t1	Abs_t2	neck_flexion	neck_bending	neck_rotation	arm_flex_r	arm_add_r	arm_rot_r	elbow_flex_r	pro_sup_r	wrist_flex_r	wrist_dev_r	arm_flex_l	arm_add_l	arm_rot_l	elbow_flex_l	pro_sup_l	wrist_flex_l	wrist_dev_l
      2.55000000	      1.82116096	    -12.45456513	     84.86669947	      0.25820077	      0.90876738	      0.63066340	      9.63613995	      2.72180781	     -6.54549378	      6.39907898	      0.11168500	     32.81981231	      5.41780298	      0.00000000	      5.67000608	     -4.33358601	     12.29188989	      0.39138344	      0.00683093	     29.27354317	    -12.83622799	      0.00000000	     -0.29404113	      0.42635049	      1.30998756	     -0.54606379	      0.56704615	      1.39186178	     -0.48308018	      1.03662858	      1.39186178	     -0.33605961	      1.03662858	      1.14623912	     -0.27304660	      0.86941392	      1.06436489	     -0.16801510	      0.66041691	      0.98249067	     -2.10030641	      4.82296201	      7.28575782	      0.00000000	      0.00000000	     11.08361296	     -2.51728335	      4.69093456	     13.60089678	    -13.16184503	     78.38137247	     13.54154553	      4.98562274	     -4.82571901	     -3.35268406	     14.58863320	     -3.95015761	    169.54717757	      2.89833764	     65.04971795	    -14.90901550	      8.89534466
      2.56666667	      2.07423733	    -12.37896525	     85.25498647	      0.25757580	      0.91014414	      0.63108767	      9.58454156	      2.91718497	     -6.91978846	      6.37180109	      0.11120891	     32.44396752	      5.40460424	      0.00000000	      5.61846427	     -4.53295573	     12.62255241	      0.39116706	      0.00682715	     28.70498167	    -13.04440038	      0.00000000	     -0.28705437	      0.45429940	      1.24871972	     -0.53308867	      0.60421820	      1.32676470	     -0.47160163	      1.10458355	      1.32676470	     -0.32807444	      1.10458355	      1.09262975	     -0.26655869	      0.92640733	      1.01458477	     -0.16402287	      0.70370976	      0.93653979	     -2.05040066	      5.13912562	      6.94500446	      0.00000000	      0.00000000	     12.41726887	     -2.58023652	      4.61180602	     13.47604141	    -13.54161236	     77.85392588	     14.38387902	      5.92401418	     -4.20640697	     -4.40588209	     13.90090389	     -4.01467636	    169.09739306	      1.59947115	     62.80092556	    -16.88573670	      7.79512523
      2.58333333	      2.24125289	    -12.32127509	     85.37835771	      0.25727852	      0.91118602	      0.63194888	      9.67717040	      3.06969494	     -6.99791858	      6.45239456	      0.11261553	     32.33011951	      5.40768701	      0.00000000	      5.60518188	     -4.68852292	     12.62434380	      0.37727506	      0.00658469	     28.40660270	    -12.99832340	      0.00000000	     -0.28555084	      0.47089114	      1.24140435	     -0.53029646	      0.62628521	      1.31899212	     -0.46913147	      1.14492471	      1.31899212	     -0.32635605	      1.14492471	      1.08622880	     -0.26516251	      0.96024120	      1.00864103	     -0.16316375	      0.72941037	      0.93105326	     -2.03966109	      5.32681470	      6.90431856	      0.00000000	      0.00000000	     13.87188841	     -2.61716315	      4.49124619	     13.43908911	    -13.95814198	     77.77450832	     15.34700825	      6.20242946	     -3.49917110	     -5.28049454	     13.55374999	     -3.95238839	    169.00527570	      0.87874178	     62.38949394	    -17.60642174	      7.69038439
      2.60000000	      2.72400013	    -12.20554096	     85.87187220	      0.25638197	      0.91170287	      0.63255249	      9.75151880	      3.46186632	     -7.48301865	      6.69790398	      0.11690048	     32.43400909	      5.40911339	      0.00000000	      5.58944102	     -5.13358520	     13.07759296	      0.37259698	      0.00650304	     28.63223863	    -12.88389945	      0.00000000	     -0.29152888	      0.53823336	      1.19363348	     -0.54139828	      0.71585037	      1.26823557	     -0.47895279	      1.30866059	      1.26823557	     -0.33318835	      1.30866059	      1.04442929	     -0.27071371	      1.09756547	      0.96982720	     -0.16657960	      0.83372348	      0.89522511	     -2.08236161	      6.08860343	      6.63863131	      0.00000000	      0.00000000	     15.03963860	     -3.37191664	      4.63076054	     13.03512970	    -14.59371094	     76.12631423	     16.18465919	      7.20439641	     -2.44085931	     -6.67740285	     13.35841812	     -3.91849191	    168.27307314	      0.77453826	     60.21478988	    -19.68063653	      6.90948549
      2.61666667	      3.23569881	    -12.32993213	     86.26630348	      0.25484313	      0.91112431	      0.63336712	     10.12672135	      3.75140991	     -9.54924900	      7.00327046	      0.12223013	     33.07438318	      7.86198130	      0.00000000	      5.83199067	     -5.59740970	     13.74604418	      0.35823670	      0.00625241	     28.89700868	    -13.14704965	      0.00000000	     -0.28849180	      0.63047479	      1.31660306	     -0.53575812	      0.83853147	      1.39889075	     -0.47396318	      1.53293641	      1.39889075	     -0.32971728	      1.53293641	      1.15202768	     -0.26789349	      1.28566420	      1.06973999	     -0.16484421	      0.97660545	      0.98745230	     -2.06066808	      7.13205695	      7.32255125	      0.00000000	      0.00000000	     16.83065942	     -4.48468567	      4.58717858	      7.17203365	    -15.63362568	     39.23894174	     23.19637231	     39.21436699	     -6.79585913	     -0.29870943	     13.75729004	     -3.41523351	    172.08236874	      0.70942757	     55.20756731	    -18.99859553	      6.32003538
      2.63333333	      3.60485113	    -12.29654651	     86.65050993	      0.25401588	      0.91106483	      0.63350405	     10.20477284	      4.06358793	     -9.70295113	      7.04405436	      0.12294194	     33.22198031	      7.77030614	      0.00000000	      5.86302760	     -5.94059508	     14.12281711	      0.33509344	      0.00584848	     28.95623860	    -13.13378510	      0.00000000	     -0.28866858	      0.69399713	      1.25928107	     -0.53608642	      0.92301619	      1.33798614	     -0.47425361	      1.68738463	      1.33798614	     -0.32991932	      1.68738463	      1.10187094	     -0.26805764	      1.41519896	      1.02316587	     -0.16494523	      1.07500156	      0.94446081	     -2.06193078	      7.85063438	      7.00374355	      0.00000000	      0.00000000	     17.86408147	     -5.28773092	      5.18669295	      7.14028701	    -16.05663924	     39.56302266	     22.97211033	     39.50907437	     -7.09975322	     -0.67605550	     13.83641052	     -3.18262237	    172.73601826	      0.78480323	     56.62286713	    -18.03447294	      7.09416836
